<?xml version="1.0" standalone="no"?><!DOCTYPE svg PUBLIC "-//W3C//DTD SVG 1.1//EN" "http://www.w3.org/Graphics/SVG/1.1/DTD/svg11.dtd"><svg t="1728331945315" class="icon" viewBox="0 0 1024 1024" version="1.1" xmlns="http://www.w3.org/2000/svg" p-id="4275" width="16" height="16" xmlns:xlink="http://www.w3.org/1999/xlink"><path d="M896 64a64 64 0 0 1 64 64v768a64 64 0 0 1-64 64H128a64 64 0 0 1-64-64V128a64 64 0 0 1 64-64h768z m0 48H128a16 16 0 0 0-16 16v768a16 16 0 0 0 16 16h768a16 16 0 0 0 16-16V128a16 16 0 0 0-16-16z m-134.688 559.36l21.76 64.96 20.8-64.96H832l-36.672 97.696c-7.296 19.424-15.136 26.72-31.36 26.72a44.8 44.8 0 0 1-24-6.592l9.088-19.584c3.52 2.144 8 3.744 11.552 3.744 4.64 0 7.136-1.44 9.44-6.24l-37.376-95.776h28.64zM257.312 640c22.464 0 36 6.08 48.96 17.088l-17.248 20.832c-9.6-8-18.144-12.64-32.576-12.64-19.936 0-35.776 17.6-35.776 38.816v0.32c0 22.816 15.68 39.552 37.76 39.552 9.92 0 18.848-2.496 25.792-7.488v-17.792h-27.616v-23.68h54.144v54.112c-12.8 10.88-30.464 19.776-53.248 19.776-38.816 0-65.504-27.232-65.504-64.096v-0.352C192 669.024 219.584 640 257.344 640z m195.84 29.568c29.568 0 51.456 21.888 51.456 49.28v0.384c0 27.392-22.08 49.664-51.808 49.664-29.536 0-51.456-21.888-51.456-49.312v-0.352c0-27.424 22.08-49.664 51.84-49.664z m118.208 0c29.568 0 51.456 21.888 51.456 49.28v0.384c0 27.392-22.08 49.664-51.808 49.664-29.536 0-51.456-21.888-51.456-49.312v-0.352c0-27.424 22.08-49.664 51.84-49.664z m85.824 1.76l21.344 63.904 21.568-63.904h28.128l-37.568 96.128h-24.576l-37.568-96.128h28.672z m-265.44-1.76v28.288h-1.44c-17.952 0-28.992 10.88-28.992 33.664v35.232h-27.072V671.36h27.072v19.232c5.504-13.184 14.4-21.728 30.432-20.992z m61.056 23.296c-15.488 0-24.736 11.936-24.736 26.016v0.32c0 14.08 10.144 26.368 25.088 26.368 15.488 0 24.768-11.936 24.768-25.984v-0.352c0-14.08-10.144-26.368-25.12-26.368z m118.208 0c-15.488 0-24.736 11.936-24.736 26.016v0.32c0 14.08 10.144 26.368 25.088 26.368 15.488 0 24.768-11.936 24.768-25.984v-0.352c0-14.08-10.144-26.368-25.12-26.368zM526.528 192l46.4 12.416-103.04 383.456-46.336-12.416L526.528 192z m-201.152 47.424l34.688 33.152-110.88 115.936 110.88 116-34.688 33.152-126.72-132.544a24 24 0 0 1 0-33.152l126.72-132.544z m357.248 0l126.72 132.544a24 24 0 0 1 0 33.152l-126.72 132.544-34.688-33.152 110.88-116-110.88-115.936 34.688-33.152z" p-id="4276" fill="#2c2c2c"></path></svg>